<svg width="306" height="272" viewBox="0 0 306 272" fill="none" xmlns="http://www.w3.org/2000/svg">
<path d="M153 24.5C180.416 24.5 205.286 40.1651 223.32 62.6631C241.354 85.1602 252.5 114.427 252.5 141.5C252.5 168.543 241.382 188.266 223.418 201.245C205.434 214.239 180.548 220.5 153 220.5C125.452 220.5 100.566 214.239 82.582 201.245C64.6183 188.266 53.5 168.543 53.5 141.5C53.5 114.427 64.6457 85.1602 82.6797 62.6631C100.714 40.1651 125.584 24.5 153 24.5Z" fill="#AFA8FF" stroke="#AFA8FF"/>
<path d="M285.542 137.935C285.6 142.63 284.431 148.691 283.038 153.157C282.606 154.555 282.028 153.702 281.693 154.65C281.035 156.491 280.986 158.348 280.202 160.134C279.938 160.723 279.01 159.694 278.76 160.313C277.395 163.689 276.719 167.037 275.317 170.427C268.412 187.037 258.998 202.05 246.576 214.863C242.478 219.109 236.643 223.257 232.219 227.34C231.703 227.82 232.621 228.288 232.565 228.432C231.643 230.674 231.011 228.754 229.773 229.392C224.847 231.921 219.833 235.143 215.484 238.032C213.631 239.258 216.481 239.764 214.008 239.959C213.838 239.973 213.855 238.846 213.272 239.047C211.953 239.509 209.726 240.859 208.731 241.259C206.818 242.027 206.518 242.179 204.751 242.975C202.322 244.053 199.238 244.811 196.656 246C196.104 246.256 197.209 246.903 196.35 247.396C195.493 247.893 193.021 248.65 192.118 248.691C191.218 248.737 191.333 247.888 191.132 247.767C189.488 246.735 187.282 249.531 186.908 249.678C180.399 252.365 174.217 252.339 167.788 253.092C162.917 253.661 157.708 254.301 153 254.226C152.961 254.226 152.922 254.225 152.883 254.225C147.244 254.112 142.564 253.272 137.161 252.658C136.591 252.59 137.118 253.768 136.418 253.685C128.968 252.784 121.654 250.954 114.82 247.943C114.136 247.639 115.336 247.044 114.674 246.688C110.573 244.555 104.886 240.209 100.763 242.691C98.0326 241.241 94.7742 239.351 92.7886 237.286C91.5141 235.957 93.4902 235.947 91.4196 235.232C90.9538 235.066 91.0546 236.144 90.3865 235.834C87.5668 234.523 84.8942 232.441 82.1408 231.033C81.5792 230.748 81.2696 231.479 81.0441 231.49C79.1595 231.535 78.2754 228.521 77.9426 228.088C75.3234 224.775 72.8209 223.164 70.0296 220.565C69.3856 219.959 69.4584 221.427 68.8116 220.866C65.4665 217.939 62.3288 214.528 59.8402 210.947C59.2897 210.149 60.5166 210.259 60.2886 209.85C59.2905 208.061 57.7599 208.75 56.8135 207.007C56.6145 206.641 57.3306 206.365 57.347 206.256C57.6163 204.565 55.5994 204.867 55.3834 204.647C52.6589 201.921 52.7859 198.855 50.6034 195.963C50.3406 195.613 50.1021 196.942 49.4097 195.921C44.7937 189.117 41.1133 181.113 38.9489 173.291C38.6113 172.074 39.5502 172.682 39.5992 172.578C40.3565 170.932 38.4711 170.75 38.2737 170.38C36.7677 167.47 37.2851 164.196 34.7584 162.621C32.4122 151.838 30.4101 140.955 31.0977 130C31.2662 127.295 31.5945 124.656 32.1166 122.003C32.1482 121.833 32.9245 122.191 32.984 121.854C33.7426 117.809 32.4542 118.524 31.2647 115.606C30.9698 114.862 33.055 113.015 33.2144 112.86C33.7952 112.268 34.8585 113.12 34.9843 112.913C35.9878 111.223 32.099 110.914 32.5448 108.401C32.5653 108.324 33.2066 108.776 33.3141 108.579C33.6497 107.971 33.4934 107.279 33.858 106.695C34.7045 105.362 36.6262 105.246 36.0614 102.847C35.9919 102.54 33.7563 102.47 34.4062 100.295C34.6514 99.431 35.6936 95.5552 36.172 94.5369C36.6353 93.5122 37.0718 94.4482 37.1242 94.3802C38.8999 91.8058 38.9235 93.0031 40.6697 92.0333C42.4139 91.0868 39.2509 90.4219 39.1159 89.728C38.9792 89.0326 40.4492 87.2387 40.8878 86.8396C41.3237 86.4362 41.4904 87.2127 41.7987 86.8257C43.8406 84.2805 40.838 84.9605 40.7634 83.8032C40.6175 81.0528 43.5746 80.2266 44.7332 78.3289C45.051 77.8115 44.3558 78.0256 44.5473 77.5169C45.325 75.5024 46.5515 74.6968 47.1318 72.2451C47.2216 71.848 46.9854 69.4242 48.5251 68.8326C48.7439 68.7517 48.9792 69.4832 49.5545 68.7655C50.4113 67.694 51.8117 65.6836 52.457 64.3623C52.9336 63.3841 51.4624 63.8985 52.4641 62.9243C52.9106 62.4947 52.7415 63.7288 53.5404 62.9007C54.3304 62.073 55.9735 59.7144 56.6176 58.8292C57.2543 57.9419 56.3316 57.998 56.3457 57.8988C56.4445 57.3032 57.4729 55.4184 57.5939 55.2738C63.4271 47.7835 70.4039 42.4234 77.2398 36.3922C77.781 35.9198 76.9597 35.6623 77.0376 35.5845C78.7883 33.8155 78.445 36.5063 80.1757 35.9583C79.0937 34.9675 80.0474 34.5477 81.3414 33.3914C81.9655 32.8348 81.2698 32.6547 81.2968 32.5636C81.8009 31.1443 83.1543 31.5317 83.4612 31.5874C84.602 31.787 84.7819 30.4872 85.5539 30.6263C86.3171 30.7662 85.7187 32.1408 87.0707 31.2172C87.1718 30.5347 85.4024 30.1034 86.3342 29.2255C89.8475 25.831 98.2266 22.4244 101.746 20.9767C105.251 19.471 106.37 18.9357 108.494 18.2718C112.35 17.1246 110.642 16.763 112.857 15.5099C115.103 14.2844 114.689 16.8958 115.19 17.2547C115.678 17.6195 115.877 17.0102 116.375 17.1379C116.869 17.2669 116.089 17.8775 117.082 17.6649C118.07 17.4444 120.455 15.8129 120.674 15.2202C121.119 13.9574 119.578 13.1652 122.341 12.8571C122.499 12.841 122.158 13.5552 122.757 13.4642C127.472 12.7312 132.337 11.8197 137.072 11.6035C137.723 11.575 137.234 12.3043 137.612 12.2955C141.546 12.24 140.031 11.3116 142.072 9.88223C141.74 11.5574 143.003 12.4122 145.95 12.2347C147.731 12.1394 147.378 11.4536 148.516 10.9094C148.858 10.7452 150.137 11.1927 150.359 10.8585C151.099 9.76853 149.866 8.55553 153 9.02681C153.001 9.02701 153.003 9.02721 153.004 9.02742C153.052 9.03562 153.029 9.11402 153 9.21377C152.961 9.34499 152.912 9.51318 153 9.60678C153.035 9.64388 153.091 9.66927 153.178 9.67613C156.226 9.93865 156.605 8.82166 159.923 8.86554C162.541 8.89944 167.066 10.0223 169.951 10.5637C169.651 12.2909 172.403 12.2893 173.722 11.3097C175.592 11.6872 177.616 12.0265 179.382 12.5958C179.988 12.7911 179.471 13.1869 179.537 13.2573C180.533 14.353 181.593 13.4238 182.004 13.4803C186.439 14.1496 189.64 16.0409 193.905 16.6868C194.055 16.7098 194.691 15.6915 195.465 16.8969C195.511 16.9777 194.013 16.9783 195.868 17.7265C197.729 18.4763 200.944 20.4838 203.664 21.1817C204.321 21.3439 206.268 21.2477 207.162 22.5194C207.279 22.6896 206.955 22.8924 207.105 23.1735C207.59 24.0726 208.533 23.2628 208.95 24.5926C209.364 25.9238 210.793 27.5071 213.493 28.3331C213.577 28.3608 214.602 27.9193 215.341 28.391C216.517 29.1398 218.078 30.3641 219.282 31.1696C219.86 31.5551 219.802 30.8478 219.907 30.9069C223.962 33.3072 226.355 35.7257 230.05 39.1085C230.725 39.7241 233.208 40.9225 234.118 42.5694C235.103 44.3718 231.883 44.887 235.465 47.501C236.883 48.5492 240.887 47.9446 241.787 51.5201C246.27 55.9701 249.104 61.1153 252.992 66.0779C253.166 66.3005 254.391 66.5905 254.734 67.1712C255.241 68.0319 255.171 68.7107 255.51 69.3329C256.916 71.9472 258.519 74.1714 259.754 76.7649C260.22 77.75 259.683 77.5915 260.225 78.7663C260.759 79.9391 261.619 80.4966 262.089 82.2128C262.44 83.5144 261.94 85.1485 262.465 86.8062C263.491 86.4709 263.927 87.595 264.925 89.5167C265.117 89.8858 265.318 89.3433 265.426 89.5117C265.876 90.1973 265.828 90.9959 266.267 91.6462C266.373 91.805 266.721 91.6971 266.827 91.8212C267.748 92.8765 267.594 95.1596 267.558 95.541C267.439 97.023 268.064 97.5159 268.142 98.6018C268.215 99.6829 267.55 98.2185 267.748 99.4476C268.157 101.982 268.948 105.175 269.412 107.722C269.6 108.739 269.931 107.96 269.968 108.103C270.48 110.198 270.319 112.424 271.394 113.473C269.223 115.267 271.817 114.721 271.668 117.861C271.653 118.106 270.574 118.52 270.314 117.619C270.053 116.718 270.238 115.285 269.807 114.054C269.71 113.757 268.407 112.212 268.302 111.993C267.509 110.263 269.129 109.723 269.207 109.608C270.013 108.329 268.469 106.46 268.271 105.938C267.383 103.513 267.103 101.378 266.286 99.3868C265.75 98.0894 264.609 98.2751 264.335 97.2339C263.398 93.7985 264.513 92.0427 262.006 89.3453C261.46 88.7715 260.542 89.8962 260.517 87.1315C260.518 86.96 260.639 84.825 259.645 84.0304C259.52 83.9315 259.176 84.0852 259.073 83.9296C258.384 82.8867 258.316 82.0171 257.608 80.8682C256.9 79.7233 255.982 78.3783 255.384 76.9714C255.025 76.1235 255.087 74.7484 255.023 74.2729C254.857 72.9259 253.458 72.1732 253.593 71.1964C253.723 70.2033 255.332 71.0616 254.605 69.0615C253.7 69.5148 252.721 69.8993 251.788 70.3221C249.474 66.4981 247.223 62.6898 244.406 59.178C244.056 58.7447 243.969 59.5335 243.582 59.081C241.949 57.1799 240.837 55.247 238.971 53.418C237.524 52.0047 235.562 50.8248 233.967 49.468C233.927 47.7029 231.366 45.83 229.736 44.2574C229.165 43.7033 229.424 43.4915 229.066 43.0385C227.699 41.3413 227.746 42.8286 227.188 42.5832C224.79 41.5642 226.211 39.4956 223.794 37.7099C223.665 37.6085 221.313 37.5301 221.052 37.4513C219.372 36.9162 221.105 36.9101 220.307 36.2186C218.845 34.9648 217.913 33.9338 215.797 33.0466C215.176 32.7863 213.396 32.677 212.647 31.4642C212.548 31.3044 212.862 30.9644 212.759 30.8724C210.872 29.2427 210.088 30.4556 208.641 30.2096C207.196 29.9664 205.771 28.1177 205.503 27.6635C204.817 26.4849 206.435 27.7784 206.521 27.7453C207.575 27.3171 206.105 26.7154 205.051 26.1137C205.533 24.7662 203.949 24.0889 203.953 25.498C203.955 25.6518 204.862 25.9465 205.051 26.1137C203.468 26.8808 201.766 26.2698 200.431 24.2461C199.8 23.3022 200.934 22.9888 198.115 22.0871C196.835 21.6906 196.935 22.8015 195.752 22.6247C193.054 22.2274 190.124 20.22 187.432 19.5578C186.465 19.3215 187.228 20.1287 186.564 19.9882C184.804 19.624 183.384 18.8041 181.573 18.5733C181.41 18.5538 181.651 19.2144 181.108 19.089C176.99 18.1628 173.433 17.1009 169.041 16.4982C166.922 16.1973 163.083 16.1588 160.883 15.9744C158.408 15.7507 155.618 15.2803 153 15.0845C151.557 14.9752 150.195 14.9475 149.028 15.0725C146.891 15.3073 147.397 15.9104 146.504 16.3861C144.798 17.3065 141.604 16.1466 141.15 15.9714C141.137 15.962 142.951 15.6296 141.944 15.4095C141.31 14.8028 141.17 15.9663 141.15 15.9714C140.856 15.8409 137.174 16.1642 136.474 16.4083C136.092 16.5329 136.397 17.0901 136.198 17.1443C131.427 18.4283 126.74 19.6387 121.913 20.755C121.826 20.7676 121.766 20.0732 121.563 20.1113C118.718 20.635 117.205 22.03 115.17 23.3015C113.133 24.5795 111.371 25.123 109.625 24.5582C108.04 25.3829 105.489 25.9614 104.015 26.3169C102.538 26.6707 102.958 28.0043 102.855 28.0846C99.6592 30.6919 97.2792 31.1252 93.6463 33.2247C91.9157 34.2163 88.7552 36.5929 87.122 37.9985C85.8285 39.1018 84.816 39.457 83.7155 40.5936C83.5672 40.7472 84.1227 41.1144 84.0872 41.1736C83.202 42.8506 82.894 41.1166 82.4405 41.1252C80.7987 41.164 79.8039 41.2702 78.4012 43.1147C78.0705 43.5428 78.4307 46.2334 77.8462 46.9593C77.0743 47.9065 76.8584 46.9978 76.0699 48.0181C76.0027 48.1053 76.3598 48.4529 75.7845 48.9807C73.1205 51.436 70.1983 54.1358 67.8084 57.0641C67.4816 57.4624 68.5175 57.4813 68.0599 58.0636C65.9137 60.7959 63.6197 63.8098 61.4042 66.3922C60.8565 67.0272 60.6766 66.2679 60.4343 66.3213C58.9477 66.6684 59.3333 68.8425 59.2237 69.0737C56.5425 74.697 53.0836 78.2373 51.1087 84.325C50.9934 84.6647 51.5038 87.7332 49.766 88.2849C49.6509 88.3193 47.8595 88.8786 48.434 90.2151C48.4714 90.297 49.4246 89.884 48.9182 91.0468C48.4089 92.2176 48.2361 94.2896 46.9259 95.6984C46.5142 96.1395 44.7077 96.9722 45.3935 98.9031C45.4307 99.0437 47.3664 102.181 45.3758 102.591C45.0498 102.657 43.1726 102.03 43.7053 104.2C43.8131 104.613 44.3864 104.046 44.44 105.075C44.5285 106.645 43.6221 108.514 44.1864 110.499C44.284 110.85 45.3973 112.412 44.2382 113.341C44.0562 113.487 43.4453 113.063 43.2923 113.629C42.5616 116.325 42.7182 119.28 42.0887 122.056C41.8683 123.047 40.8128 122.461 40.4678 123.504C40.121 124.549 39.7735 126.67 40.265 127.795C40.7568 128.91 42.5011 127.736 42.6436 129.371C42.6627 129.581 42.681 129.79 42.6985 130C43.2788 136.834 42.9994 143.655 44.1802 150.441C44.3642 151.471 44.8185 150.504 45.1465 152C46.2873 157.591 49.858 166.613 50.5562 171.643C51.0792 175.724 48.3085 171.442 49.1014 174.44C49.4995 175.907 52.1443 176.464 52.3565 176.745C54.4726 179.549 54.7447 182.088 56.5614 184.647C56.9376 185.169 57.3894 184.19 57.7007 184.635C58.7694 186.146 59.4604 187.998 60.4967 189.436C60.9636 190.078 61.453 189.584 61.8147 190.213C62.6907 191.711 63.3453 193.123 63.8434 194.869C63.8901 195.029 62.5694 194.683 63.3233 195.749C64.5444 197.464 65.6873 199.934 67.779 201.362C68.4038 201.784 69.6174 200.776 69.8106 202.642C69.8539 203.03 68.1453 203.994 70.5926 204.233C71.0066 204.294 74.6787 204.933 74.6902 206.958C74.6915 207.494 74.2926 209.311 75.097 209.74C75.2092 209.792 75.4718 208.853 76.0474 209.287C78.0653 210.819 79.9728 212.637 82.1365 214.071C82.7144 214.45 82.5053 213.116 83.3449 213.696C85.6494 215.286 88.2912 217.541 90.3874 219.314C91.159 219.97 90.153 220.196 90.166 220.304C90.3934 222.074 92.0046 220.973 92.3866 221.096C94.7743 221.892 95.9091 223.572 97.9799 224.495C98.5495 224.749 98.6024 223.782 98.7485 223.776C100.232 223.739 98.6296 224.63 99.2526 225.172C101.005 226.697 103.304 227.795 105.438 228.671C106.22 228.99 105.803 227.675 106.495 227.967C110.601 229.67 114.853 231.411 118.81 233.263C119.557 233.614 118.819 234.214 118.926 234.438C119.677 236.012 121.87 234.842 122.291 234.784C124.238 234.539 124.73 235.392 126.315 235.642C134.024 236.87 143.451 238.427 150.827 238.736C151.561 238.771 152.285 238.802 153 238.828C161.57 239.097 168.707 238.912 176.948 236.832C177.514 236.686 176.695 235.721 177.175 235.581C183.345 233.818 189.493 232.217 195.253 229.326C195.725 229.09 194.606 228.394 195.34 227.982C196.844 227.129 198.808 226.25 200.512 225.767C201.342 225.529 200.748 226.896 201.581 226.636C203.524 226.028 205.46 225.048 207.149 223.838C207.864 223.322 206.164 223.021 207.128 222.427C213.68 218.333 219.505 213.649 226.219 209.382C226.676 209.091 228.637 210.483 229.164 209.338C228.773 208.804 228.235 208.253 227.777 207.722C235.537 199.547 242.899 191.015 248.297 180.999C248.522 180.579 247.005 180.696 247.428 179.885C249.873 175.164 251.521 170.354 254.499 165.641C254.791 165.171 256.893 166.197 257.066 164.536C257.1 164.244 257.526 161.809 257.207 161.066C257.157 160.963 255.999 161.074 256.179 160.323C257.244 155.942 258.456 151.435 259.779 147.067C259.994 146.359 261.037 147.314 261.201 146.807C262.359 143.2 261.834 139.078 263.047 135.555C263.857 133.193 265.868 134.158 267.919 132.892C268.21 132.712 268.275 131.157 269.449 131.083C272.408 130.891 275.634 131.72 278.789 131.428C279.316 131.379 279.014 130.001 279.597 130C279.597 130 279.597 130 279.597 130C279.77 130 280.02 130.12 280.39 130.432C280.502 130.527 281.019 132.207 281.56 132.634C281.935 132.932 283.145 132.431 283.619 133.039C284.09 133.65 283.067 134.276 283.597 135.282C284.127 136.297 285.515 135.906 285.542 137.935ZM97.3814 28.1061C95.8382 28.2036 96.8569 30.4289 97.8713 29.1911C97.9191 29.1289 97.4599 28.0999 97.3814 28.1061ZM248.29 61.9566C247.867 59.9897 246.147 59.7047 246.42 61.1057C246.683 62.4969 248.416 62.5499 248.29 61.9566ZM258.631 77.9796C258.208 75.7682 255.824 76.6243 257.311 78.4254C257.396 78.5307 258.655 78.1081 258.631 77.9796ZM268.194 139.101C268.252 139.087 268.384 137.971 268.33 137.94C267.052 137.262 266.795 139.466 268.194 139.101ZM266.231 95.4221C266.35 94.6814 265.388 92.9316 265.261 93.8588C265.164 94.5999 266.091 96.3406 266.231 95.4221ZM45.945 78.8422C45.8986 78.8446 45.5132 79.5739 45.7264 79.6557C46.411 79.9154 46.7127 78.7995 45.945 78.8422ZM271.402 127.353C271.344 122.595 272.975 119.486 273.052 124.803C273.057 125.757 272.366 122.777 272.254 123.998C272.053 126.211 273.25 127.665 272.631 129.958C272.524 130.365 271.409 127.618 271.399 127.344C271.4 127.347 271.401 127.35 271.402 127.353ZM95.2591 25.9397C95.2179 25.9243 94.2042 26.4596 94.1969 26.5021C94.0434 27.4784 96.0699 26.4048 95.2591 25.9397ZM32.7274 125.148C32.6373 125.206 32.4811 127.892 32.5612 127.983C34.0139 129.391 34.3162 124.032 32.7274 125.148ZM169.99 10.6166C171.331 10.1087 172.871 10.2814 173.716 11.3078C172.486 11.0449 171.229 10.8374 169.99 10.6166Z" fill="#AFA8FF"/>
</svg>
